<svg width="377" height="216" viewBox="0 0 377 216" fill="none" xmlns="http://www.w3.org/2000/svg">
<path d="M0 212.982V113.684H53.8697C57.461 113.684 60.7019 114.561 63.5049 116.316C66.3079 118.07 68.4101 120.351 69.8116 122.982C71.2131 125.702 72.0014 128.596 72.2642 131.842C72.5269 135.088 72.0014 138.07 70.9503 140.965C69.8116 143.772 67.8845 146.316 65.0816 148.596C62.2786 150.789 58.95 152.193 54.8332 152.807V153.86C59.9136 154.386 64.118 156.404 67.4466 160.088C70.8627 163.684 72.5269 168.158 72.5269 173.333V197.456C72.5269 203.947 69.3736 208.86 63.1545 212.193C56.9354 215.614 50.4535 216.053 43.7965 213.596C35.3875 210.351 30.3947 203.509 28.6429 193.158H27.5918L27.4166 213.158H0V212.982ZM35.9131 121.404H33.8109V145.351H35.9131V121.404ZM35.9131 188.07V157.281H33.8109V185.614C33.8109 187.018 34.5116 187.807 35.9131 188.07Z" fill="#FF8000"/>
<path d="M147.331 132.895V193.684C147.331 198.246 145.492 202.193 141.988 205.439C138.484 208.684 133.93 211.14 128.586 212.544C123.243 214.035 117.462 214.737 111.155 214.737C104.849 214.737 99.0676 214.035 93.6368 212.544C88.206 211.053 83.7388 208.684 80.1475 205.439C76.5562 202.193 74.8043 198.246 74.8043 193.684V132.895C74.8043 129.035 76.1182 125.614 78.8336 122.544C81.549 119.561 84.9651 117.193 89.1696 115.614C93.374 114.035 98.104 112.895 103.36 112.193C108.615 111.491 113.696 111.491 118.864 112.193C124.032 112.895 128.762 114.035 133.054 115.614C137.346 117.193 140.762 119.474 143.39 122.544C146.017 125.614 147.331 129.035 147.331 132.895ZM113.52 203.158V121.316C112.119 121.491 111.418 122.368 111.418 123.772V205.614C112.82 205.439 113.52 204.561 113.52 203.158Z" fill="#FF8000"/>
<path d="M223.012 113.684V193.772C223.012 197.632 221.698 201.053 219.07 204.123C216.442 207.193 213.026 209.561 208.734 211.053C204.442 212.632 199.712 213.772 194.544 214.474C189.376 215.175 184.208 215.175 179.04 214.474C173.872 213.772 169.142 212.632 164.938 211.053C160.645 209.474 157.229 207.193 154.602 204.123C151.974 201.053 150.572 197.544 150.572 193.772V113.684H187.186V205.614C188.588 205.439 189.288 204.561 189.288 203.158V113.684H223.012Z" fill="#FF8000"/>
<path d="M263.392 212.982H226.778V113.684H275.48V134.123H263.392V153.246H275.48V173.596H263.392V212.982Z" fill="#FF8000"/>
<path d="M314.108 212.982H277.494V113.684H326.196V134.123H314.108V153.246H326.196V173.596H314.108V212.982Z" fill="#FF8000"/>
<path d="M377 212.982H328.298V113.684H377V134.123H364.912V153.246H377V173.596H364.912V192.719H377V213.07V212.982Z" fill="#FF8000"/>
<path d="M34.0737 68.9474H0.262817V0H25.6648V54.8246H34.0737V68.9474Z" fill="#FF8000"/>
<path d="M60.264 41.6667V33.8596C59.3004 34.0351 58.7749 34.5614 58.7749 35.5263V40.7895H35.8255V19.6491H54.3952V32.3684H55.096C55.6215 28.9474 56.6727 26.1403 58.0741 24.0351C59.4756 21.9298 61.0523 20.4386 62.8918 19.6491C64.7312 18.8596 66.921 18.4211 69.3736 18.4211C71.8262 18.4211 74.1037 18.9474 76.1183 19.9123C78.2205 20.8772 79.8848 22.3684 81.1987 24.2105C82.5126 26.1403 83.1257 28.2456 83.1257 30.614V68.9474H64.3808V56.2281H63.6801C62.8042 61.2281 60.9647 64.8246 57.9866 67.0175C55.0084 69.2105 51.5047 70.2632 47.563 70.2632C43.7089 70.2632 40.3804 69.1228 37.4898 66.8421C34.5992 64.5614 33.1978 61.6667 33.1978 58.0702C33.1978 54.4737 34.2489 51.5789 36.2635 49.2105C38.2781 46.8421 41.0811 45.2632 44.5848 44.5614L60.1764 41.7544L60.264 41.6667ZM60.264 52.193V46.5789L58.7749 46.9298V54.8246C59.7384 54.6491 60.264 53.7719 60.264 52.193Z" fill="#FF8000"/>
<path d="M140.674 1.66666L140.849 34.1228H141.55C142.777 26.5789 145.93 21.6667 151.185 19.386C155.215 17.7193 158.981 18.0702 162.573 20.4386C165.901 22.6316 167.653 25.8772 167.653 30.2631V55.4386C167.653 59.2105 166.339 62.4561 163.711 65.0877C161.083 67.7193 157.93 69.0351 154.164 69.0351H115.272V7.01753L135.068 1.66666H140.674ZM142.163 63.5965V37.3684C141.2 37.5438 140.674 38.0702 140.674 39.1228V63.5088H142.163V63.5965Z" fill="#FF8000"/>
<path d="M219.508 33.1579V55.4386C219.508 58.5088 218.282 61.2281 215.741 63.5088C213.289 65.7895 210.136 67.4561 206.457 68.5088C202.778 69.5614 198.748 70.0877 194.369 70.0877C189.989 70.0877 185.96 69.5614 182.193 68.5088C178.427 67.4561 175.361 65.7895 172.821 63.5088C170.281 61.2281 169.054 58.5088 169.054 55.4386V33.1579C169.054 30.0877 170.281 27.3684 172.821 25.0877C175.361 22.807 178.427 21.1404 182.193 20.0877C185.96 19.0351 189.989 18.5965 194.369 18.5965C198.748 18.5965 202.778 19.1228 206.457 20.0877C210.136 21.1404 213.289 22.807 215.741 25.0877C218.194 27.3684 219.508 30.0877 219.508 33.1579ZM196.033 61.9298V24.9123C195.07 25.0877 194.544 25.614 194.544 26.6667V63.5088C195.508 63.3333 196.033 62.807 196.033 61.8421V61.9298Z" fill="#FF8000"/>
<path d="M244.91 68.9474H221.435V19.6491H240.53V33.5088H241.231C242.457 26.3158 245.873 21.5789 251.654 19.386C256.385 17.5439 260.939 17.807 265.319 20.2632C269.611 22.5439 271.713 26.0526 271.713 30.614V68.9474H246.311V36.9298C245.348 37.1053 244.822 37.6316 244.822 38.5965V68.9474H244.91Z" fill="#FF8000"/>
<path d="M297.728 68.9474H274.254V19.6491H293.349V33.5088H294.05C295.276 26.3158 298.692 21.5789 304.473 19.386C309.203 17.5439 313.758 17.807 318.138 20.2632C322.43 22.5439 324.532 26.0526 324.532 30.614V68.9474H299.13V36.9298C298.166 37.1053 297.641 37.6316 297.641 38.5965V68.9474H297.728Z" fill="#FF8000"/>
<path d="M376.737 44.2982V55.2632C376.737 58.3333 375.511 61.0526 372.971 63.3333C370.518 65.614 367.365 67.2807 363.686 68.3333C360.007 69.386 355.978 69.9123 351.598 69.9123C347.218 69.9123 343.189 69.386 339.423 68.3333C335.656 67.2807 332.59 65.614 330.05 63.3333C327.598 61.0526 326.284 58.3333 326.284 55.2632V32.9825C326.284 29.9123 327.51 27.193 330.05 24.9123C332.503 22.6316 335.656 20.9649 339.423 19.9123C343.189 18.8596 347.218 18.4211 351.598 18.4211C355.978 18.4211 360.007 18.9474 363.686 19.9123C367.365 20.9649 370.518 22.6316 372.971 24.9123C375.423 27.193 376.737 29.9123 376.737 32.9825V42.8947H351.861V63.4211C352.824 63.2456 353.35 62.7193 353.35 61.7544V44.386H376.825L376.737 44.2982ZM353.262 37.5439V24.7368C352.299 24.9123 351.773 25.4386 351.773 26.4912V37.5439H353.262Z" fill="#FF8000"/>
<path d="M349.671 99.2105C349.671 99.2105 375.423 97.807 375.423 97.4561C375.423 97.1053 349.671 95.3509 349.671 95.3509V94.2105C349.671 94.2105 375.423 92.8947 375.423 92.4561C375.423 92.1053 349.671 90.3509 349.671 90.3509V89.5614C349.671 89.5614 377 88.0702 377 87.7193C377 87.3684 356.065 85.7018 349.583 85.5263C346.167 85.4386 339.861 85.3509 336.007 91.7544H0V97.6316H335.919C339.423 103.772 346.08 104.211 349.583 104.035C355.978 103.86 376.825 102.719 376.825 102.193C376.825 101.667 349.583 100 349.583 100V99.1228L349.671 99.2105Z" fill="#FF8000"/>
</svg>
